<svg id="aquarium2" enable-background="new 0 0 300 300" height="512" viewBox="0 0 300 300" width="512" xmlns="http://www.w3.org/2000/svg"><g><circle cx="136" cy="136" fill="#dff4f4" r="90"/><g><path d="m235.193 106h-170.386c-14.805 0-26.807 12.002-26.807 26.807v90.386c0 14.805 12.002 26.807 26.807 26.807h170.386c14.805 0 26.807-12.002 26.807-26.807v-90.386c0-14.805-12.002-26.807-26.807-26.807z" fill="#9dc1e4"/><path d="m235.191 254h-170.382c-16.989 0-30.809-13.82-30.809-30.807v-90.387c0-16.986 13.82-30.806 30.809-30.806h170.383c16.988 0 30.808 13.82 30.808 30.807v90.387c0 16.986-13.82 30.806-30.809 30.806zm-170.382-144c-12.579 0-22.809 10.23-22.809 22.807v90.387c0 12.576 10.23 22.806 22.809 22.806h170.383c12.578 0 22.808-10.23 22.808-22.807v-90.387c0-12.576-10.23-22.806-22.809-22.806z" fill="#4c241d"/></g><path d="m38 146 18.286-10.06c6.049-3.327 13.379-3.327 19.428 0l8.572 4.716c6.049 3.327 13.379 3.327 19.428 0l8.572-4.716c6.049-3.327 13.379-3.327 19.428 0l8.572 4.716c6.049 3.327 13.379 3.327 19.428 0l8.572-4.716c6.049-3.327 13.379-3.327 19.428 0l8.572 4.716c6.049 3.327 13.379 3.327 19.428 0l8.572-4.716c6.049-3.327 13.379-3.327 19.428 0l18.286 10.06v-13.193c0-14.805-12.002-26.807-26.807-26.807h-170.386c-14.805 0-26.807 12.002-26.807 26.807z" fill="#c1dbdc"/><g><path d="m92.089 229.549s-37.072-98.859-32.953-131.812l45.31 131.812z" fill="#a9ba5a"/><path d="m104.445 233.549h-12.355c-1.668 0-3.16-1.035-3.746-2.596-1.527-4.074-37.371-100.168-33.176-133.713.23-1.848 1.703-3.291 3.555-3.482 1.82-.176 3.59.916 4.195 2.678l45.309 131.812c.422 1.223.227 2.572-.527 3.625-.751 1.051-1.962 1.676-3.255 1.676zm-9.566-8h3.961l-32.477-94.488c7.442 35.832 24.317 83 28.516 94.488z" fill="#4c241d"/></g><g><path d="m114.427 237.314s7.67-77.208 7.441-118.078c-.077-13.804 1.269-27.58 4.264-41.056l3.03-13.635s-16.477 8.238-20.596 70.025-9.021 103.506-9.021 103.506z" fill="#a9ba5a"/><path d="m99.543 242.076c-1.105 0-2.16-.457-2.922-1.266-.805-.861-1.188-2.031-1.051-3.201.051-.416 4.938-42.342 9.004-103.305 4.152-62.275 20.902-72.389 22.797-73.338 1.383-.688 3.039-.523 4.25.426 1.215.949 1.777 2.514 1.445 4.02l-3.027 13.635c-2.848 12.801-4.25 26.314-4.172 40.166.23 40.609-7.383 117.723-7.461 118.496-.195 1.969-1.801 3.5-3.777 3.6l-14.883.762c-.066.003-.137.005-.203.005zm14.883-4.762h.039zm5.742-149.14c-3.16 10.053-6.16 24.904-7.609 46.662-3.297 49.418-7.137 86.395-8.516 99.004l6.734-.344c1.465-15.396 7.289-78.916 7.09-114.236-.058-10.596.711-21.008 2.301-31.086z" fill="#4c241d"/></g><g><path d="m104.447 237.549h12.357s16.477-12.357 16.477-65.906 16.477-94.74 16.477-94.74-24.715 20.596-28.834 82.383c-4.12 61.786-16.477 78.263-16.477 78.263z" fill="#a9ba5a"/><path d="m116.805 241.549h-12.359c-1.516 0-2.898-.855-3.578-2.211-.672-1.344-.535-2.949.355-4.158.223-.314 11.785-17.291 15.707-76.16 4.188-62.775 29.203-84.305 30.266-85.189 1.414-1.17 3.434-1.238 4.91-.164 1.484 1.076 2.047 3.02 1.367 4.721-.164.406-16.191 41.17-16.191 93.256 0 54.918-17.34 68.553-18.078 69.105-.692.519-1.532.8-2.399.8zm-5.762-8h4.152c3.082-3.424 14.086-18.678 14.086-61.906 0-27.77 4.297-52.09 8.547-69.342-5.645 12.586-11.172 31.139-12.914 57.25-2.855 42.836-9.703 64.449-13.871 73.998z" fill="#4c241d"/></g><g><path d="m111.374 238h-21.344s-28.834-125.398 20.596-166.59c0 0-20.625 50.59-12.357 86.502 7.62 33.101 13.105 80.088 13.105 80.088z" fill="#a9ba5a"/><path d="m111.375 242h-21.344c-1.863 0-3.48-1.287-3.898-3.104-1.199-5.219-28.805-128.279 21.93-170.559 1.418-1.178 3.449-1.238 4.922-.156 1.484 1.084 2.039 3.037 1.344 4.738-.199.494-20.047 49.855-12.16 84.094 7.582 32.936 13.125 80.051 13.18 80.523.133 1.133-.227 2.27-.984 3.123-.76.853-1.849 1.341-2.99 1.341zm-18.102-8h13.582c-1.57-12.49-6.359-48.59-12.484-75.191-5.148-22.367.309-49.686 5.559-68.104-25.024 44.123-10.114 126.328-6.657 143.295z" fill="#4c241d"/></g><g fill="#4c241d"><path d="m222 78c-6.617 0-12-5.383-12-12s5.383-12 12-12 12 5.383 12 12-5.383 12-12 12zm0-16c-2.207 0-4 1.795-4 4s1.793 4 4 4 4-1.795 4-4-1.793-4-4-4z"/><circle cx="178" cy="54" r="4"/><circle cx="234" cy="166" r="4"/><circle cx="170" cy="226" r="4"/><circle cx="188" cy="76" r="6"/><circle cx="70" cy="82" r="4"/></g><g><path d="m144.241 238h-14.241v-1.193c0-5.969-4.838-10.807-10.807-10.807h-21.193c-4.418 0-8 3.582-8 8h-17.193c-5.969 0-10.807 4.838-10.807 10.807v5.193h28 20 8 12 20v-6.241c0-3.181-2.578-5.759-5.759-5.759z" fill="#ffded5"/><path d="m150 254h-88c-2.211 0-4-1.791-4-4v-5.193c0-8.164 6.641-14.807 14.805-14.807h13.879c1.652-4.656 6.102-8 11.316-8h21.195c7.203 0 13.223 5.174 14.539 12h10.508c5.379 0 9.758 4.379 9.758 9.76v6.24c0 2.209-1.789 4-4 4zm-84-8h80v-2.24c0-.971-.789-1.76-1.758-1.76h-14.242c-2.211 0-4-1.791-4-4v-1.193c0-3.754-3.051-6.807-6.805-6.807h-21.195c-2.207 0-4 1.795-4 4 0 2.209-1.789 4-4 4h-17.195c-3.754 0-6.805 3.053-6.805 6.807z" fill="#4c241d"/></g><path d="m130 242h-16c-2.211 0-4-1.791-4-4s1.789-4 4-4h16c2.211 0 4 1.791 4 4s-1.789 4-4 4z" fill="#4c241d"/><g><ellipse cx="136" cy="166" fill="#bd53b5" rx="18" ry="12"/><path d="m136 182c-12.336 0-22-7.027-22-16s9.664-16 22-16 22 7.027 22 16-9.664 16-22 16zm0-24c-8.25 0-14 4.217-14 8s5.75 8 14 8 14-4.217 14-8-5.75-8-14-8z" fill="#4c241d"/></g><g><path d="m154.453 166 19.547 12v-24z" fill="#bd53b5"/><path d="m174 182c-.727 0-1.453-.197-2.094-.592l-19.547-12c-1.184-.727-1.906-2.018-1.906-3.408s.723-2.682 1.906-3.408l19.547-12c1.23-.76 2.777-.789 4.047-.082 1.266.707 2.047 2.041 2.047 3.49v24c0 1.449-.781 2.783-2.047 3.49-.609.34-1.281.51-1.953.51zm-11.902-16 7.902 4.852v-9.703z" fill="#4c241d"/></g><g><ellipse cx="224" cy="206" fill="#ffce56" rx="18" ry="12"/><path d="m224 222c-12.336 0-22-7.027-22-16s9.664-16 22-16 22 7.027 22 16-9.664 16-22 16zm0-24c-8.25 0-14 4.217-14 8s5.75 8 14 8 14-4.217 14-8-5.75-8-14-8z" fill="#4c241d"/></g><g><path d="m205.547 206-19.547 12v-24z" fill="#ffce56"/><path d="m186 222c-.672 0-1.344-.17-1.953-.51-1.266-.707-2.047-2.041-2.047-3.49v-24c0-1.449.781-2.783 2.047-3.49 1.27-.707 2.812-.678 4.047.082l19.547 12c1.184.727 1.906 2.018 1.906 3.408s-.723 2.682-1.906 3.408l-19.547 12c-.641.395-1.367.592-2.094.592zm4-20.852v9.703l7.902-4.852z" fill="#4c241d"/></g><path d="m262 150c-.664 0-1.328-.164-1.93-.496l-18.285-10.059c-4.875-2.68-10.695-2.68-15.57 0l-8.57 4.715c-7.297 4.012-15.992 4.012-23.289 0l-8.57-4.715c-4.875-2.68-10.695-2.68-15.57 0l-8.57 4.715c-7.297 4.012-15.992 4.012-23.289 0l-8.57-4.715c-4.875-2.68-10.695-2.68-15.57 0l-8.57 4.715c-7.297 4.012-15.992 4.012-23.289 0l-8.57-4.715c-4.875-2.68-10.695-2.68-15.57 0l-18.288 10.059c-1.234.686-2.746.662-3.965-.061-1.219-.72-1.965-2.029-1.965-3.443v-13.193c0-16.987 13.82-30.807 30.809-30.807h170.383c16.988 0 30.808 13.82 30.808 30.807v13.193c0 1.414-.746 2.723-1.965 3.443-.625.371-1.332.557-2.035.557zm-28-20.57c4 0 7.996 1.002 11.645 3.008l12.355 6.796v-6.428c0-12.576-10.23-22.806-22.809-22.806h-170.382c-12.579 0-22.809 10.23-22.809 22.807v6.428l12.355-6.797c7.297-4.012 15.992-4.012 23.289 0l8.57 4.715c4.875 2.68 10.695 2.68 15.57 0l8.57-4.715c7.297-4.012 15.992-4.012 23.289 0l8.57 4.715c4.875 2.68 10.695 2.68 15.57 0l8.57-4.715c7.297-4.012 15.992-4.012 23.289 0l8.57 4.715c4.875 2.68 10.695 2.68 15.57 0l8.57-4.715c3.652-2.006 7.648-3.008 11.648-3.008z" fill="#4c241d"/><path d="m270 254h-240c-2.211 0-4-1.791-4-4s1.789-4 4-4h240c2.211 0 4 1.791 4 4s-1.789 4-4 4z" fill="#4c241d"/></g></svg>