<svg id="furniture-aquarium" enable-background="new 0 0 300 300" height="512" viewBox="0 0 300 300" width="512" xmlns="http://www.w3.org/2000/svg"><g><circle cx="172" cy="116" fill="#dff4f4" r="90"/><g><path d="m42 54h176v84h-176z" fill="#9dc1e4"/><path d="m218 142h-176c-2.209 0-4-1.791-4-4v-84c0-2.209 1.791-4 4-4h176c2.209 0 4 1.791 4 4v84c0 2.209-1.791 4-4 4zm-172-8h168v-76h-168z" fill="#4c241d"/></g><g><path d="m42 138h176v16h-176z" fill="#ffded5"/><path d="m218 158h-176c-2.209 0-4-1.791-4-4v-16c0-2.209 1.791-4 4-4h176c2.209 0 4 1.791 4 4v16c0 2.209-1.791 4-4 4zm-172-8h168v-8h-168z" fill="#4c241d"/></g><g><ellipse cx="120" cy="98" fill="#ffce56" rx="18" ry="12"/><path d="m120 114c-12.336 0-22-7.027-22-16s9.664-16 22-16 22 7.027 22 16-9.664 16-22 16zm0-24c-8.25 0-14 4.217-14 8s5.75 8 14 8 14-4.217 14-8-5.75-8-14-8z" fill="#4c241d"/></g><g><path d="m138.453 98 19.547 12v-24z" fill="#ffce56"/><path d="m158 114c-.727 0-1.451-.197-2.092-.592l-19.547-12c-1.186-.727-1.908-2.018-1.908-3.408s.723-2.682 1.908-3.408l19.547-12c1.232-.76 2.781-.791 4.045-.082 1.264.707 2.047 2.041 2.047 3.49v24c0 1.449-.783 2.783-2.047 3.49-.607.34-1.281.51-1.953.51zm-11.902-16 7.902 4.852v-9.703z" fill="#4c241d"/></g><g fill="#4c241d"><path d="m242 58c-6.617 0-12-5.383-12-12s5.383-12 12-12 12 5.383 12 12-5.383 12-12 12zm0-16c-2.205 0-4 1.795-4 4s1.795 4 4 4 4-1.795 4-4-1.795-4-4-4z"/><path d="m183.996 142c-1.922 0-3.615-1.387-3.941-3.342-2.318-13.914 17.211-29.994 19.447-31.781 1.725-1.379 4.238-1.098 5.619.623 1.381 1.725 1.102 4.24-.621 5.621-7.021 5.633-17.727 17.188-16.555 24.221.363 2.18-1.109 4.24-3.287 4.604-.222.036-.445.054-.662.054z"/><path d="m190.004 142c-.26 0-.523-.025-.789-.078-2.166-.434-3.57-2.541-3.137-4.707 3.326-16.629-9.348-23.369-9.889-23.648-1.955-1.008-2.74-3.41-1.746-5.371.998-1.963 3.385-2.754 5.346-1.773 6.479 3.24 17.771 14.174 14.133 32.363-.379 1.9-2.051 3.214-3.918 3.214z"/><path d="m63.996 142c-1.922 0-3.615-1.387-3.941-3.342-2.457-14.746 15.395-23.855 16.156-24.236 1.979-.988 4.381-.186 5.367 1.789s.189 4.373-1.781 5.363c-.135.066-13.314 6.992-11.852 15.768.363 2.18-1.109 4.24-3.287 4.604-.222.036-.445.054-.662.054z"/><path d="m70 142c-2.209 0-4-1.791-4-4 0-18.797-11.463-41.98-11.578-42.213-.986-1.977-.186-4.377 1.791-5.365 1.971-.99 4.377-.188 5.365 1.789.506 1.016 12.422 25.082 12.422 45.789 0 2.209-1.791 4-4 4z"/><path d="m58 139.611c-2.209 0-4-1.791-4-4 0-7.711-5.443-19.76-7.541-23.75-1.027-1.957-.275-4.375 1.68-5.402 1.959-1.033 4.375-.273 5.402 1.68.346.658 8.459 16.228 8.459 27.472 0 2.209-1.791 4-4 4z"/></g><g><path d="m42 154h88v104h-88z" fill="#fff"/><path d="m130 262h-88c-2.209 0-4-1.791-4-4v-104c0-2.209 1.791-4 4-4h88c2.209 0 4 1.791 4 4v104c0 2.209-1.791 4-4 4zm-84-8h80v-96h-80z" fill="#4c241d"/></g><g><path d="m130 154h88v104h-88z" fill="#fff"/><path d="m218 262h-88c-2.209 0-4-1.791-4-4v-104c0-2.209 1.791-4 4-4h88c2.209 0 4 1.791 4 4v104c0 2.209-1.791 4-4 4zm-84-8h80v-96h-80z" fill="#4c241d"/></g><path d="m142 214c-2.209 0-4-1.791-4-4v-16c0-2.209 1.791-4 4-4s4 1.791 4 4v16c0 2.209-1.791 4-4 4z" fill="#4c241d"/><path d="m118 214c-2.209 0-4-1.791-4-4v-16c0-2.209 1.791-4 4-4s4 1.791 4 4v16c0 2.209-1.791 4-4 4z" fill="#4c241d"/><g><path d="m50 258h16v12h-16z" fill="#e2e2e2"/><path d="m66 274h-16c-2.209 0-4-1.791-4-4v-12c0-2.209 1.791-4 4-4h16c2.209 0 4 1.791 4 4v12c0 2.209-1.791 4-4 4zm-12-8h8v-4h-8z" fill="#4c241d"/></g><g><path d="m194 258h16v12h-16z" fill="#e2e2e2"/><path d="m210 274h-16c-2.209 0-4-1.791-4-4v-12c0-2.209 1.791-4 4-4h16c2.209 0 4 1.791 4 4v12c0 2.209-1.791 4-4 4zm-12-8h8v-4h-8z" fill="#4c241d"/></g><circle cx="190" cy="86" fill="#4c241d" r="4"/><circle cx="86" cy="82" fill="#4c241d" r="4"/><circle cx="198" cy="34" fill="#4c241d" r="4"/><circle cx="246" cy="86" fill="#4c241d" r="4"/><circle cx="78" cy="70" fill="#4c241d" r="4"/></g></svg>