<svg id="water-plant" enable-background="new 0 0 300 300" height="512" viewBox="0 0 300 300" width="512" xmlns="http://www.w3.org/2000/svg"><g><circle cx="116.004" cy="132" fill="#dff4f4" r="90"/><path d="m160.008 264c-.246 0-.494-.021-.744-.068-2.172-.41-3.6-2.502-3.191-4.672 1.014-5.375 25.238-132.078 63.732-172.783 1.52-1.605 4.049-1.674 5.654-.158 1.605 1.518 1.676 4.049.158 5.654-36.885 39.004-61.439 167.475-61.682 168.768-.363 1.921-2.041 3.259-3.927 3.259z" fill="#4c241d"/><path d="m176.006 264.002c-.375 0-.754-.053-1.131-.164-2.119-.623-3.332-2.848-2.709-4.967.836-2.84 21.107-69.918 77.854-102.344 1.922-1.094 4.363-.43 5.457 1.488 1.096 1.918.43 4.361-1.488 5.457-53.977 30.844-73.951 96.992-74.146 97.656-.515 1.743-2.109 2.874-3.837 2.874z" fill="#4c241d"/><path d="m140.002 264c-1.727 0-3.32-1.129-3.836-2.869-.195-.666-20.25-66.859-74.146-97.658-1.918-1.096-2.584-3.539-1.488-5.457 1.1-1.918 3.541-2.582 5.457-1.488 56.746 32.426 77.018 99.504 77.854 102.344.623 2.119-.59 4.34-2.707 4.965-.378.11-.759.163-1.134.163z" fill="#4c241d"/><path d="m156.004 264c-2.209 0-4-1.791-4-4 0-74.16-47.102-169.26-47.578-170.211-.988-1.977-.186-4.379 1.789-5.367 1.98-.988 4.379-.188 5.367 1.789 1.977 3.955 48.422 97.719 48.422 173.789 0 2.209-1.791 4-4 4z" fill="#4c241d"/><g><path d="m223.84 133.442c8.114-22.437 8.938-39.822 3.635-45.716-11.31-12.571-31.813 9.164-45.505 49.609-11.463 33.863-21.575 61.588-12.447 66.158 6.654 3.331 19.281-7.604 31.836-26.137l-5.355-5.356 12.684-6.342c2.163-3.743 4.288-7.675 6.34-11.774.742-1.483 1.429-2.94 2.117-4.399l-9.141-5.485z" fill="#a9ba5a"/><path d="m172.144 208.096c-1.523 0-3.002-.32-4.412-1.027-11.693-5.852-3.707-29.348 8.379-64.912l2.07-6.104c10.674-31.531 25.594-52.826 38.938-55.574 5.105-1.049 9.695.535 13.33 4.572 6.764 7.52 5.699 26.117-2.848 49.75-.291.805-.832 1.494-1.543 1.969l-10.576 7.053 3.721 2.232c1.762 1.057 2.436 3.275 1.561 5.135-.701 1.488-1.402 2.973-2.16 4.484-2.018 4.035-4.189 8.07-6.453 11.986-.391.678-.975 1.227-1.674 1.576l-7.721 3.859 1.432 1.432c1.355 1.355 1.559 3.484.484 5.072-6.194 9.141-20.707 28.495-32.528 28.497zm47.942-119.928c-.434 0-.883.049-1.352.146-8.256 1.699-22.096 18.166-32.975 50.305l-2.074 6.111c-7.523 22.137-17.826 52.455-12.371 55.186 2.838 1.416 12.557-4.709 24.855-22.092l-2.994-2.996c-.91-.908-1.326-2.199-1.121-3.469.207-1.27 1.01-2.361 2.16-2.938l11.605-5.803c1.969-3.449 3.859-6.986 5.629-10.525.176-.352.35-.701.52-1.051l-6.023-3.613c-1.176-.705-1.908-1.963-1.939-3.334-.033-1.371.639-2.664 1.779-3.424l14.734-9.824c8.33-23.621 6.982-37.109 3.98-40.445-1.36-1.515-2.763-2.234-4.413-2.234zm3.754 45.273h.039z" fill="#4c241d"/></g><g><path d="m262.392 176.019c9.728-15.199 8.832-29.441 4.505-33.132-6.668-5.689-37.357 17.094-54.928 36.524-17.571 19.429-26.41 39.792-19.742 45.48 6.442 5.495 20.019-10.573 41.607-23.518l-4.434-6.46h14.574c3.561-2.552 6.724-5.189 9.452-7.88l-7.957-7.728z" fill="#a9ba5a"/><path d="m195.215 230.064c-2 0-3.852-.652-5.584-2.129-1.488-1.27-3.32-3.666-3.592-7.867-.658-10.176 8.355-27.188 22.963-43.34 11.578-12.803 48.955-46.744 60.49-36.885 6.5 5.543 6.551 22.268-3.73 38.332-.59.922-1.531 1.562-2.607 1.77l-9.404 1.828 2.463 2.391c.771.748 1.209 1.777 1.213 2.854.004 1.074-.424 2.107-1.189 2.863-2.871 2.832-6.211 5.619-9.932 8.285-.68.486-1.494.748-2.33.748h-6.979l.135.197c.625.91.846 2.037.611 3.115s-.904 2.012-1.852 2.578c-7.617 4.568-14.168 9.5-19.949 13.852-8.44 6.352-15.157 11.408-20.727 11.408zm68.357-84.238c-6.168 0-30.547 16.266-48.637 36.27-14.299 15.809-21.344 30.811-20.914 37.457.051.779.23 1.811.801 2.297 1.676 1.422 10.484-5.201 16.309-9.586 5.02-3.777 10.605-7.982 17.031-12.082l-2.061-3.004c-.842-1.225-.934-2.812-.242-4.127s2.055-2.137 3.539-2.137h13.275c1.756-1.295 3.406-2.615 4.939-3.949l-4.932-4.789c-1.068-1.037-1.471-2.584-1.047-4.012.426-1.428 1.609-2.5 3.072-2.783l15.205-2.955c8.359-13.982 6.289-24.875 4.389-26.496-.201-.069-.446-.104-.727-.104zm-1.179 30.194h.039z" fill="#4c241d"/></g><g><path d="m64.474 176.019c-8.269-15.199-7.507-29.441-3.829-33.132 5.668-5.689 31.753 17.094 46.689 36.524s22.448 39.792 16.78 45.481c-5.476 5.495-17.017-10.573-35.366-23.518l3.769-6.46h-12.388c-3.027-2.552-5.716-5.189-8.035-7.88l6.763-7.728z" fill="#a9ba5a"/><path d="m121.635 230.1c-5.135.002-11.162-5.338-18.285-11.645-4.902-4.342-10.461-9.264-16.906-13.811-1.697-1.197-2.197-3.492-1.15-5.285l.26-.445h-5.424c-.943 0-1.855-.334-2.578-.941-3.174-2.674-6.029-5.477-8.486-8.328-1.299-1.51-1.291-3.746.021-5.246l2.35-2.686-7.852-1.793c-1.119-.256-2.074-.98-2.623-1.988-8.637-15.875-8.602-32.396-3.15-37.867 1.035-1.041 2.879-2.234 5.936-2.045 11.391.732 34.879 23.498 46.76 38.955 14.498 18.861 24.803 42.348 16.441 50.74-1.658 1.664-3.426 2.385-5.314 2.385zm-27.61-29.832c5.529 4.141 10.324 8.385 14.629 12.197 4.59 4.064 10.814 9.555 12.842 9.535 2.428-2.584-1.219-19.186-17.334-40.15-15.234-19.818-35.711-35.965-40.9-35.871-1.57 2.352-2.928 13.031 3.898 26.553l12.588 2.875c1.373.314 2.48 1.326 2.914 2.666.436 1.34.133 2.809-.795 3.869l-4.406 5.035c1.289 1.33 2.676 2.646 4.15 3.938h10.906c1.432 0 2.756.766 3.469 2.008s.709 2.771-.014 4.008z" fill="#4c241d"/></g><g><path d="m147.406 145.667c-3.168-11.262-6.141-22.178-9.57-31.5l-5.832 5.833 2.711-13.555c-6.147-13.506-14.065-21.607-26.711-18.445-9.467 2.367-7.941 13.651-3.218 29.27l11.218 6.73h-9.098c3.016 9.232 6.671 19.581 9.697 30.333.068.242.142.474.211.714l11.19 8.953h-8.442c9.17 27.985 21.584 47.835 29.234 45.683 8.506-2.393 7.884-31.054-1.39-64.016z" fill="#a9ba5a"/><path d="m147.572 213.855c-15.084 0-29.051-40.188-31.811-48.609-.4-1.219-.191-2.555.562-3.594.295-.408.66-.75 1.072-1.016l-3.082-2.467c-.65-.52-1.121-1.229-1.35-2.027l-.213-.725c-2.219-7.885-4.75-15.461-7.197-22.787-.846-2.529-1.67-4.996-2.451-7.389-.398-1.219-.188-2.553.564-3.59.066-.092.135-.18.209-.264l-1.15-.689c-.852-.512-1.482-1.32-1.77-2.271-3.775-12.486-5.553-22.104-1.947-28.457 1.688-2.973 4.387-4.941 8.023-5.852 19.678-4.922 28.441 14.34 31.322 20.67.348.764.447 1.617.281 2.441l-.588 2.943c.215.012.432.041.646.088 1.332.293 2.424 1.244 2.895 2.525 3.146 8.551 5.861 18.232 8.736 28.484l.93 3.312c6.184 21.975 13.852 64.662-1.377 68.949-.769.22-1.538.325-2.304.325zm-22.422-45.855c9.967 28.145 20.027 38.506 22.561 37.834 3.455-.973 6.209-22.248-4.154-59.082l-.934-3.32c-2.172-7.746-4.25-15.16-6.473-21.92l-1.318 1.316c-1.248 1.248-3.162 1.535-4.715.699-1.555-.832-2.381-2.584-2.035-4.312l2.453-12.27c-7.645-16.072-15.17-16.66-21.561-15.064-1.912.477-2.611 1.34-3.008 2.039-2.412 4.252.559 15.174 2.203 20.717l9.893 5.934c1.541.924 2.275 2.764 1.797 4.498-.48 1.732-2.057 2.932-3.855 2.932h-3.561c.23.693.463 1.393.699 2.096 2.422 7.254 4.926 14.748 7.158 22.619l10.201 8.162c1.328 1.061 1.838 2.844 1.277 4.447-.562 1.604-2.076 2.676-3.775 2.676h-2.853z" fill="#4c241d"/></g><g><circle cx="70.004" cy="110" fill="#9dc1e4" r="8"/><path d="m70.004 122c-6.617 0-12-5.383-12-12s5.383-12 12-12 12 5.383 12 12-5.383 12-12 12zm0-16c-2.205 0-4 1.795-4 4s1.795 4 4 4 4-1.795 4-4-1.795-4-4-4z" fill="#4c241d"/></g><g><circle cx="218.004" cy="214" fill="#9dc1e4" r="8"/><path d="m218.004 226c-6.617 0-12-5.383-12-12s5.383-12 12-12 12 5.383 12 12-5.383 12-12 12zm0-16c-2.205 0-4 1.795-4 4s1.795 4 4 4 4-1.795 4-4-1.795-4-4-4z" fill="#4c241d"/></g><g><circle cx="186.004" cy="50" fill="#9dc1e4" r="12"/><path d="m186.004 66c-8.822 0-16-7.178-16-16s7.178-16 16-16 16 7.178 16 16-7.178 16-16 16zm0-24c-4.412 0-8 3.588-8 8s3.588 8 8 8 8-3.588 8-8-3.588-8-8-8z" fill="#4c241d"/></g><g><circle cx="174.004" cy="146" fill="#9dc1e4" r="12"/><path d="m174.004 162c-8.822 0-16-7.178-16-16s7.178-16 16-16 16 7.178 16 16-7.178 16-16 16zm0-24c-4.412 0-8 3.588-8 8s3.588 8 8 8 8-3.588 8-8-3.588-8-8-8z" fill="#4c241d"/></g><g fill="#4c241d"><circle cx="170.004" cy="90" r="4"/><circle cx="262.004" cy="118" r="4"/><circle cx="78.004" cy="222" r="4"/><circle cx="148.004" cy="72" r="6"/><path d="m202.004 266h-104c-2.209 0-4-1.791-4-4s1.791-4 4-4h104c2.209 0 4 1.791 4 4s-1.791 4-4 4z"/><path d="m242.004 266h-28c-2.209 0-4-1.791-4-4s1.791-4 4-4h28c2.209 0 4 1.791 4 4s-1.791 4-4 4z"/><path d="m86.004 266h-24c-2.209 0-4-1.791-4-4s1.791-4 4-4h24c2.209 0 4 1.791 4 4s-1.791 4-4 4z"/></g></g></svg>