<svg id="fish2" enable-background="new 0 0 300 300" height="512" viewBox="0 0 300 300" width="512" xmlns="http://www.w3.org/2000/svg"><g><circle cx="142" cy="152" fill="#dff4f4" r="92"/><g><path d="m118 128s8-20 20-24 8 8 24 8 32 12 36 28" fill="#e2e2e2"/><path d="m197.996 144c-1.793.002-3.422-1.213-3.875-3.029-3.504-14.002-17.609-24.971-32.121-24.971-9.656 0-13.672-4.016-16.328-6.672-2.227-2.227-2.758-2.752-6.406-1.533-8.367 2.789-15.508 16.605-17.555 21.693-.82 2.049-3.152 3.039-5.199 2.223-2.051-.822-3.047-3.146-2.227-5.197.355-.887 8.848-21.773 22.449-26.309 8.352-2.785 11.957.83 14.594 3.467 2.325 2.322 4.328 4.328 10.672 4.328 18.012 0 35.531 13.631 39.879 31.029.539 2.145-.766 4.316-2.91 4.852-.324.082-.652.119-.973.119z" fill="#4c241d"/></g><g><path d="m126 192s4 12 24 16c0 0 4-4-4-16" fill="#e2e2e2"/><path d="m150 212c-.262 0-.523-.025-.785-.078-22.023-4.404-26.816-18.076-27.008-18.656-.699-2.096.434-4.361 2.527-5.061 2.102-.693 4.328.42 5.043 2.484.168.449 3.316 8.477 17.07 12.436-.328-1.797-1.352-4.672-4.176-8.906-1.227-1.838-.73-4.322 1.109-5.547 1.84-1.229 4.32-.73 5.547 1.109 9.344 14.018 4.555 19.992 3.5 21.047-.756.758-1.776 1.172-2.827 1.172z" fill="#4c241d"/></g><g><path d="m166 188s8 12 24 4 0-16 0-16" fill="#e2e2e2"/><path d="m179.496 198.738c-8.523 0-14.41-4.898-16.824-8.52-1.227-1.838-.73-4.322 1.109-5.547 1.844-1.221 4.301-.73 5.531 1.084.656.943 6.621 8.799 18.898 2.666 3.867-1.934 4.898-3.504 4.898-4.125 0-1.365-2.949-3.744-4.898-4.719-1.977-.988-2.777-3.391-1.789-5.367.988-1.975 3.395-2.779 5.367-1.789.953.477 9.32 4.863 9.32 11.875 0 4.393-3.133 8.188-9.32 11.281-4.534 2.269-8.655 3.161-12.292 3.161z" fill="#4c241d"/></g><g><path d="m30 168s20-40 84-40 84 24 120 8 36-12 36-4-16 28-24 28c0 0 16 8 20 16s8 20-16 12-36-24-84 0-136-12-136-12l4-4z" fill="#fff"/><path d="m124.289 200.289c-44.793.002-93.09-19.477-95.805-20.586-1.238-.508-2.141-1.602-2.406-2.914-.262-1.312.148-2.67 1.094-3.617l1.172-1.172-1.172-1.172c-1.219-1.217-1.52-3.076-.75-4.617.863-1.723 21.863-42.211 87.578-42.211 28.629 0 48.777 4.766 64.961 8.596 20.773 4.918 34.488 8.16 53.414-.25 27.043-12.018 33.844-12.82 38.121-10.041 3.504 2.277 3.504 6.39 3.504 9.695 0 7.633-9.863 21.787-19.195 28.41 5.309 3.344 12.07 8.396 14.773 13.801 1.633 3.27 5.977 11.953 1.391 17.242-3.613 4.16-10.477 4.26-22.234.342-4.785-1.596-9.059-3.473-13.188-5.289-16.453-7.234-30.668-13.473-67.758 5.072-12.683 6.342-27.883 8.711-43.5 8.711zm-87.121-25.848c19.98 7.275 88.07 29.477 127.043 9.98 40.453-20.221 57.02-12.943 74.555-5.24 3.965 1.742 8.062 3.545 12.5 5.023 11.457 3.82 13.641 2.025 13.66 2.006.004-.008.91-1.592-2.504-8.422-2.48-4.959-12.484-11.35-18.211-14.211-1.66-.83-2.531-2.691-2.105-4.498.43-1.805 2.039-3.08 3.895-3.08 5.234 0 20-17.719 20-24 0-.951 0-2.305-.121-3.014-1.879-.264-8.5 1-30.254 10.668-21.395 9.51-37.766 5.637-58.504.727-15.782-3.734-35.426-8.38-63.122-8.38-51.711 0-73.488 27.039-78.969 35.375l1.797 1.797c1.438 1.439 1.551 3.701.34 5.269z" fill="#4c241d"/></g><g><path d="m46 172s-4 20 4 24" fill="#9dc1e4"/><path d="m49.996 200c-.602 0-1.211-.135-1.785-.422-10.215-5.107-6.902-24.523-6.133-28.363.43-2.164 2.516-3.572 4.703-3.137 2.164.432 3.57 2.537 3.141 4.703-1.379 6.957-1.508 17.953 1.867 19.641 1.977.988 2.777 3.391 1.789 5.367-.703 1.402-2.113 2.211-3.582 2.211z" fill="#4c241d"/></g><g><path d="m78 168s4 8-4 12" fill="#9dc1e4"/><path d="m74.004 184c-1.469 0-2.879-.809-3.582-2.211-.988-1.977-.188-4.379 1.789-5.367 4.105-2.051 2.73-5.596 2.211-6.633-.988-1.977-.188-4.379 1.789-5.367 1.977-.99 4.375-.188 5.367 1.789 2.328 4.654 2.707 13.119-5.789 17.367-.574.287-1.183.422-1.785.422z" fill="#4c241d"/></g><g><path d="m74 148c8 4 8 8 8 8s0-8 8-12c4.729-2.365 2.467-8.909-.172-13.876-8.852 1.623-16.554 4.059-23.187 6.951.844 3.775 2.802 8.646 7.359 10.925z" fill="#ffce56"/><path d="m82 160c-2.082 0-3.793-1.592-3.984-3.623-.113-.33-.988-2.393-5.805-4.799-4.734-2.367-8.008-7.08-9.473-13.629-.418-1.869.547-3.773 2.305-4.539 7.375-3.217 15.473-5.646 24.066-7.219 1.691-.322 3.43.518 4.25 2.057 3.125 5.879 4.082 10.51 2.918 14.154-.73 2.283-2.281 4.072-4.488 5.176-5.722 2.861-5.789 8.367-5.789 8.422 0 2.209-1.789 4-4 4zm-4-3.992v.004c0-.002 0-.004 0-.004zm0-.008v.006c0-.002 0-.004 0-.006zm-6.465-16.617c.852 2.039 2.184 4.004 4.254 5.039 1.945.973 3.52 1.977 4.793 2.967 1.504-2.516 3.875-5.09 7.629-6.967.355-.178.398-.312.445-.455.094-.301.406-1.777-1.09-5.32-5.628 1.187-10.999 2.773-16.031 4.736z" fill="#4c241d"/></g><g><path d="m94 156s4-4 12-8c4.944-2.472 5.302-12.575 4.856-19.938-9.951.209-18.802 1.387-26.642 3.232-.827 2.263-.604 5.121 1.786 8.706 8 12 8 16 8 16z" fill="#6b4f5b"/><path d="m94 159.994c-.52 0-1.043-.102-1.539-.311-1.41-.59-2.359-1.926-2.453-3.438-.062-.365-.848-4.297-7.336-14.027-2.875-4.314-3.621-8.453-2.215-12.301.465-1.264 1.531-2.211 2.844-2.52 8.547-2.01 17.789-3.131 27.469-3.336h.086c2.109 0 3.863 1.643 3.992 3.758.801 13.213-1.508 20.982-7.059 23.758-7.227 3.613-10.934 7.225-10.973 7.262-.761.753-1.781 1.155-2.816 1.155zm4-3.994h.039zm-10.133-21.42c.184.945.672 2.016 1.461 3.201 3.316 4.977 5.375 8.738 6.645 11.527 2.078-1.459 4.824-3.18 8.238-4.887 1.066-.533 2.828-3.785 2.785-12.223-6.672.327-13.078 1.126-19.129 2.382z" fill="#4c241d"/></g><g><path d="m114 128c-4.508 0-8.773.217-12.853.586-1.174 6.616 4.853 18.978 4.853 27.414 0 12 .027 7.346 8 8 10.424.855 28-4 16-12-3.922-2.615 5.414-12.479 8.491-22.747-7.416-.769-15.506-1.253-24.491-1.253z" fill="#ffce56"/><path d="m107.641 168.354c-1.141 0-2.379-.256-3.508-1.236-2.133-1.847-2.133-4.182-2.133-11.118 0-3.408-1.25-7.967-2.461-12.375-1.602-5.826-3.113-11.332-2.328-15.738.316-1.777 1.781-3.121 3.578-3.285 13.07-1.186 25.523-.635 38.113.672 1.188.123 2.258.768 2.918 1.76.66.99.844 2.225.504 3.367-1.402 4.672-3.84 9.023-5.996 12.861-1.133 2.02-2.613 4.66-3.105 6.115 5.168 3.854 5.293 7.557 4.426 10.047-2.664 7.66-17.586 9.08-23.977 8.562-1.773-.143-3.008.031-4.094.188-.582.084-1.242.18-1.937.18zm4.742-8.42c.598 0 1.246.021 1.945.08 6.402.525 13.66-1.373 15.496-2.977-.285-.346-.871-.928-2.043-1.709-5.383-3.588-1.848-9.889 1.57-15.98 1.164-2.076 2.422-4.316 3.492-6.6-9.117-.736-18.344-1.066-27.73-.459.328 2.619 1.242 5.957 2.141 9.219 1.348 4.918 2.746 10.004 2.746 14.492 0 1.48 0 2.918.023 4.055.68-.071 1.466-.121 2.36-.121z" fill="#4c241d"/></g><g><path d="m122 140c8 8 4 24 12 24s16-8 16-12 12-16 12-16l-.647-3.239c-11.538-2.32-24.931-4.297-41.373-4.689-1.159 4.232-1.187 8.721 2.02 11.928z" fill="#6b4f5b"/><path d="m134 168c-7.508 0-9-7.547-10.09-13.059-.895-4.52-1.82-9.193-4.738-12.113-2.645-2.643-5.32-7.533-3.051-15.812.488-1.773 2.16-3.039 3.953-2.941 14.215.338 27.582 1.854 42.066 4.766 1.582.318 2.816 1.555 3.133 3.137l.648 3.238c.262 1.311-.148 2.668-1.094 3.613-5.352 5.354-10.422 11.639-10.852 13.447.025 6.333-10.319 15.724-19.975 15.724zm-10.711-35.824c-.227 3.23 1.051 4.508 1.539 4.996 4.641 4.639 5.91 11.059 6.93 16.217.449 2.262 1.195 6.045 1.996 6.592h.027c6.191 0 11.934-6.084 12.223-8.059-.004-3.932 5.234-10.455 10.508-16.021-11.336-2.098-22.059-3.299-33.223-3.725z" fill="#4c241d"/></g><g><path d="m206 156 2.513-14.513c-9.739-.084-19.417-2.383-30.767-5.068-1.013 3.082-1.351 5.977.254 7.581 4 4 28 12 28 12z" fill="#6b4f5b"/><path d="m206 160c-.426 0-.852-.068-1.266-.205-5.84-1.947-25.23-8.635-29.562-12.967-3.805-3.805-1.863-9.715-1.227-11.658.652-1.979 2.727-3.107 4.723-2.645 11.125 2.633 20.625 4.881 29.879 4.963 1.176.01 2.285.535 3.035 1.438.754.902 1.07 2.088.871 3.244l-2.512 14.512c-.199 1.148-.887 2.154-1.891 2.752-.624.375-1.335.566-2.05.566zm-25.07-18.723c.008.039.016.057.016.059 1.688 1.648 11.957 5.854 21.914 9.359l.934-5.402c-7.372-.539-14.759-2.119-22.864-4.016z" fill="#4c241d"/></g><g><path d="m178 160c2.093-4.185 9.65-12.736 16.391-19.952-10.694-1.899-22.269-5.3-36.765-8.009 4.71 5.175 10.242 11.697 12.374 15.961 4 8 4 20 8 12z" fill="#ffce56"/><path d="m175.789 166.641c-.156 0-.316-.008-.48-.023-3.777-.367-4.801-4.062-6.098-8.74-.734-2.646-1.566-5.646-2.789-8.088-1.535-3.066-5.707-8.414-11.754-15.057-1.156-1.271-1.375-3.141-.535-4.641.832-1.5 2.516-2.318 4.227-1.984 7.574 1.416 14.484 3.047 20.578 4.484 5.703 1.346 11.09 2.617 16.152 3.518 1.445.256 2.633 1.281 3.094 2.672.465 1.391.133 2.924-.871 3.996-11.66 12.482-14.863 17.27-15.734 19.012-.68 1.355-2.426 4.851-5.79 4.851zm-7.519-28.313c2.492 3.166 4.266 5.801 5.309 7.883 1.375 2.748 2.297 5.811 3.039 8.443 1.68-2.365 4.641-6.104 10.02-12.08-3.09-.674-6.262-1.424-9.535-2.195-2.88-.68-5.802-1.369-8.833-2.051z" fill="#4c241d"/></g><circle cx="62" cy="156" fill="#4c241d" r="4.292"/><g><circle cx="114" cy="60" fill="#9dc1e4" r="8"/><path d="m114 72c-6.617 0-12-5.383-12-12s5.383-12 12-12 12 5.383 12 12-5.383 12-12 12zm0-16c-2.207 0-4 1.795-4 4s1.793 4 4 4 4-1.795 4-4-1.793-4-4-4z" fill="#4c241d"/></g><g><circle cx="242" cy="240" fill="#9dc1e4" r="8"/><path d="m242 252c-6.617 0-12-5.383-12-12s5.383-12 12-12 12 5.383 12 12-5.383 12-12 12zm0-16c-2.207 0-4 1.795-4 4s1.793 4 4 4 4-1.795 4-4-1.793-4-4-4z" fill="#4c241d"/></g><circle cx="66" cy="108" fill="#4c241d" r="4.292"/><circle cx="158" cy="60" fill="#4c241d" r="4.292"/><g><circle cx="214" cy="92" fill="#9dc1e4" r="12"/><path d="m214 108c-8.824 0-16-7.178-16-16s7.176-16 16-16 16 7.178 16 16-7.176 16-16 16zm0-24c-4.41 0-8 3.588-8 8s3.59 8 8 8 8-3.588 8-8-3.59-8-8-8z" fill="#4c241d"/></g><circle cx="194.391" cy="228" fill="#4c241d" r="6"/></g></svg>